<svg width="16" height="16" viewBox="0 0 16 16" fill="none" xmlns="http://www.w3.org/2000/svg">
<path fill-rule="evenodd" clip-rule="evenodd" d="M11.4601 10.319L15.7639 14.6228C15.9151 14.7742 16.0001 14.9795 16 15.1935C15.9999 15.4075 15.9148 15.6127 15.7635 15.7639C15.6121 15.9152 15.4068 16.0002 15.1928 16.0001C14.9788 16 14.7736 15.9149 14.6223 15.7635L10.3185 11.4598C9.03194 12.4562 7.41407 12.9252 5.79403 12.7712C4.17398 12.6172 2.67346 11.8518 1.59771 10.6307C0.521957 9.4096 -0.0482098 7.82457 0.00319691 6.19803C0.0546036 4.57149 0.723722 3.02563 1.87443 1.87492C3.02514 0.724211 4.57101 0.0550919 6.19754 0.00368519C7.82408 -0.0477215 9.40911 0.522445 10.6302 1.5982C11.8513 2.67394 12.6167 4.17447 12.7707 5.79452C12.9247 7.41456 12.4558 9.03243 11.4593 10.319H11.4601ZM6.4003 11.1998C7.67328 11.1998 8.89412 10.6941 9.79425 9.79394C10.6944 8.89381 11.2001 7.67297 11.2001 6.39999C11.2001 5.12701 10.6944 3.90616 9.79425 3.00603C8.89412 2.1059 7.67328 1.60021 6.4003 1.60021C5.12732 1.60021 3.90648 2.1059 3.00634 3.00603C2.10621 3.90616 1.60052 5.12701 1.60052 6.39999C1.60052 7.67297 2.10621 8.89381 3.00634 9.79394C3.90648 10.6941 5.12732 11.1998 6.4003 11.1998Z" fill="white"/>
</svg>
